<svg width="64" height="92" viewBox="0 0 64 92" fill="none" xmlns="http://www.w3.org/2000/svg">
<g clip-path="url(#clip0_294_1242)">
<path d="M32 33.8945V67.7894C23.5131 67.7894 15.3737 64.2184 9.37258 57.8619C3.37142 51.5053 0 42.884 0 33.8945H32Z" fill="#63CCAF"/>
<path d="M32 33.8949H0V0C8.48693 0 16.6263 3.57106 22.6274 9.92759C28.6286 16.2841 32 24.9054 32 33.8949Z" fill="#028F68"/>
<path d="M64 33.8945C64 42.884 60.6286 51.5053 54.6274 57.8619C48.6263 64.2184 40.4869 67.7894 32 67.7894C32 58.8 35.3714 50.1786 41.3726 43.8221C47.3737 37.4656 55.5131 33.8945 64 33.8945Z" fill="#028F68"/>
<path d="M64 33.8949C55.5131 33.8949 47.3737 30.3239 41.3726 23.9673C35.3714 17.6108 32 8.98949 32 0V0C40.4869 0 48.6263 3.57106 54.6274 9.92759C60.6286 16.2841 64 24.9054 64 33.8949Z" fill="#63CCAF"/>
</g>
<path d="M10.7023 78.4434L13.735 87.876L16.7585 78.4434H21.0697V92.001H17.7849V88.835L18.1022 82.3542L14.8175 92.001H12.6526L9.35851 82.3449L9.67578 88.835V92.001H6.40039V78.4434H10.7023Z" fill="white"/>
<path d="M31.5864 86.2557H26.4353V89.4868H32.5195V92.001H23.1599V78.4434H32.5382V80.9668H26.4353V83.8254H31.5864V86.2557Z" fill="white"/>
<path d="M33.8539 92.001V78.4434H38.2304C39.4311 78.4434 40.5105 78.7165 41.4685 79.2628C42.4266 79.8028 43.1731 80.5695 43.7081 81.5627C44.2493 82.5497 44.5231 83.6578 44.5293 84.8869V85.5108C44.5293 86.7524 44.2649 87.8666 43.7361 88.8537C43.2135 89.8345 42.4732 90.6042 41.5152 91.1629C40.5633 91.7154 39.4995 91.9948 38.3238 92.001H33.8539ZM37.1293 80.9668V89.4868H38.2678C39.2072 89.4868 39.9288 89.1547 40.4327 88.4905C40.9366 87.8201 41.1886 86.8269 41.1886 85.5108V84.9242C41.1886 83.6144 40.9366 82.6273 40.4327 81.9631C39.9288 81.2989 39.1947 80.9668 38.2304 80.9668H37.1293Z" fill="white"/>
<path d="M53.2891 89.4682H48.8007L48.0168 92.001H44.5175L49.5005 78.4434H52.5799L57.6003 92.001H54.0823L53.2891 89.4682ZM49.5845 86.9448H52.5053L51.0402 82.2425L49.5845 86.9448Z" fill="white"/>
<defs>
<clipPath id="clip0_294_1242">
<rect width="64" height="67.7898" fill="white"/>
</clipPath>
</defs>
</svg>
